<svg width="500" height="500" viewBox="0 0 500 500" fill="none" xmlns="http://www.w3.org/2000/svg">
<path fill-rule="evenodd" clip-rule="evenodd" d="M500 250C500 388.071 388.071 500 250 500C111.929 500 0 388.071 0 250C0 111.929 111.929 0 250 0C388.071 0 500 111.929 500 250ZM234.843 131.948C236.062 134.045 236.846 136.365 237.151 138.769C241.983 168.993 243.777 199.619 242.532 230.208C242.129 243.499 238.444 256.485 231.804 268.02C225.164 279.555 215.772 289.284 204.46 296.345C193.623 302.616 186.631 313.918 185.862 326.387L183.922 368.57C183.84 373.89 181.701 378.974 177.951 382.763C174.2 386.552 169.127 388.756 163.787 388.915C152.695 388.587 143.836 379.618 143.653 368.534L141.676 324.856C140.98 312.351 134.208 301.012 123.555 294.449C99.759 278.918 85.262 252.521 84.9325 224.083C84.166 195.522 86.041 166.951 90.5336 138.732C90.7987 136.311 91.5579 133.97 92.7646 131.852C93.9714 129.734 95.6002 127.884 97.551 126.416C99.5018 124.948 101.733 123.892 104.109 123.314C106.484 122.736 108.953 122.648 111.364 123.055C116.229 124.101 120.494 126.992 123.255 131.117C126.016 135.241 127.056 140.274 126.154 145.149C122.722 164.674 121.044 184.464 121.138 204.286C121.065 205.956 121.326 207.624 121.908 209.192C122.489 210.76 123.378 212.197 124.523 213.419C125.668 214.641 127.047 215.624 128.577 216.309C130.108 216.994 131.761 217.369 133.439 217.411C136.815 217.306 140.014 215.882 142.343 213.446C144.672 211.01 145.945 207.758 145.886 204.395L145.776 130.274C145.665 127.575 146.154 124.886 147.208 122.397C148.263 119.909 149.855 117.683 151.873 115.879C153.891 114.074 156.285 112.736 158.882 111.96C161.48 111.184 164.217 110.988 166.899 111.388C171.33 112.471 175.248 115.051 177.985 118.687C180.721 122.323 182.108 126.791 181.909 131.331L182.018 204.395C182.023 205.999 182.345 207.586 182.966 209.066C183.587 210.546 184.494 211.89 185.636 213.021C186.779 214.152 188.133 215.047 189.623 215.657C191.113 216.266 192.708 216.577 194.319 216.573C195.929 216.568 197.523 216.247 199.009 215.629C200.495 215.011 201.845 214.107 202.98 212.969C204.116 211.832 205.015 210.483 205.627 208.999C206.239 207.515 206.551 205.926 206.546 204.322C206.668 184.488 204.989 164.683 201.531 145.149C200.639 140.28 201.684 135.256 204.444 131.14C207.204 127.023 211.463 124.137 216.321 123.091C218.726 122.727 221.181 122.846 223.54 123.441C225.898 124.036 228.114 125.095 230.055 126.556C231.996 128.017 233.624 129.85 234.843 131.948ZM272.332 230.719C272.332 183.14 296.164 111.133 343.792 111.133C391.456 111.133 415.252 183.14 415.252 230.755C415.107 242.828 412.027 254.686 406.277 265.315C400.526 275.944 392.275 285.027 382.231 291.788C377.567 294.858 373.684 298.966 370.889 303.788C368.093 308.609 366.462 314.012 366.123 319.569L363.853 368.57C363.853 373.869 361.74 378.951 357.977 382.698C354.215 386.445 349.112 388.55 343.792 388.55C338.471 388.55 333.368 386.445 329.606 382.698C325.844 378.951 323.73 373.869 323.73 368.57L321.497 319.569C320.765 308.304 314.834 297.986 305.389 291.788C284.998 278.115 272.661 255.292 272.332 230.719Z" fill="white"/>
</svg>
