<svg width="500" height="500" viewBox="0 0 500 500" fill="none" xmlns="http://www.w3.org/2000/svg">
<circle cx="100" cy="200" r="100" fill="#F8F9FA"/>
<circle cx="425" cy="200" r="75" fill="#F8F9FA"/>
<rect x="100" y="150" width="350" height="100" fill="#F8F9FA"/>
<path d="M200 70C200 58.9543 208.954 50 220 50H230C241.046 50 250 58.9543 250 70V125H200V70Z" fill="#F8F9FA"/>
<path d="M200 275H250V430C250 441.046 241.046 450 230 450H220C208.954 450 200 441.046 200 430V275Z" fill="#F8F9FA"/>
<path d="M300 275H350V330C350 341.046 341.046 350 330 350H320C308.954 350 300 341.046 300 330V275Z" fill="#F8F9FA"/>
<path d="M300 70C300 58.9543 308.954 50 320 50H330C341.046 50 350 58.9543 350 70V125H300V70Z" fill="#F8F9FA"/>
</svg>
