<svg width="500" height="500" viewBox="0 0 500 500" fill="none" xmlns="http://www.w3.org/2000/svg">
<path d="M426.952 72.6888C403.926 49.5538 376.505 31.2122 346.286 18.7329C316.068 6.25358 283.657 -0.113883 250.942 0.00154157C113.856 0.00154157 2.13461 111.189 2.00904 247.688C2.00904 291.407 13.4982 333.938 35.1896 371.594L0 500L131.969 465.563C168.477 485.341 209.377 495.708 250.942 495.719H251.067C388.184 495.719 499.874 384.532 500 247.907C500.031 215.346 493.59 183.101 481.048 153.029C468.506 122.956 450.11 95.6522 426.921 72.6888H426.952ZM250.942 453.781C213.869 453.794 177.477 443.862 145.593 425.031L138.059 420.531L59.7689 440.969L80.6755 364.938L75.7785 357.094C55.0542 324.292 44.0936 286.314 44.1675 247.563C44.1675 134.251 136.991 41.8139 251.067 41.8139C278.244 41.7654 305.161 47.0725 330.268 57.4292C355.375 67.786 378.174 82.9875 397.35 102.157C416.594 121.253 431.85 143.952 442.238 168.946C452.625 193.94 457.939 220.734 457.873 247.782C457.747 361.5 364.923 453.781 250.942 453.781V453.781ZM364.421 299.594C358.237 296.501 327.693 281.532 321.949 279.407C316.235 277.376 312.06 276.313 307.98 282.501C303.805 288.657 291.876 302.688 288.297 306.719C284.719 310.876 281.014 311.344 274.799 308.282C268.615 305.157 248.556 298.657 224.824 277.501C206.303 261.094 193.904 240.782 190.2 234.626C186.621 228.438 189.854 225.126 192.962 222.032C195.693 219.282 199.146 214.782 202.254 211.22C205.393 207.657 206.429 205.032 208.469 200.907C210.51 196.72 209.537 193.157 207.998 190.063C206.429 186.97 194.029 156.439 188.787 144.126C183.764 131.97 178.648 133.657 174.818 133.501C171.239 133.282 167.064 133.282 162.889 133.282C159.736 133.36 156.634 134.086 153.776 135.415C150.918 136.743 148.367 138.645 146.283 141.001C140.57 147.189 124.592 162.157 124.592 192.688C124.592 223.22 146.88 252.563 150.019 256.72C153.095 260.876 193.778 323.344 256.215 350.219C270.969 356.625 282.584 360.407 291.656 363.282C306.567 368.032 320.034 367.313 330.77 365.782C342.698 363.969 367.529 350.782 372.771 336.313C377.919 321.813 377.919 309.438 376.35 306.844C374.812 304.219 370.637 302.688 364.421 299.594V299.594Z" fill="#F8F9FA"/>
</svg>
